{
  "accessors": [
    {
      "bufferView": 3,
      "componentType": 5126,
      "count": 5583,
      "max": [
        2.779517412185669,
        7.171764373779297,
        0.8049247860908508
      ],
      "min": [
        -2.779517412185669,
        -0.004144191741943359,
        -0.5206605195999146
      ],
      "type": "VEC3"
    },
    {
      "bufferView": 3,
      "byteOffset": 66996,
      "componentType": 5126,
      "count": 5583,
      "max": [
        0.9998825192451477,
        0.996590793132782,
        0.9996635913848877
      ],
      "min": [
        -0.9999669790267944,
        -0.9995973706245422,
        -0.9997233748435974
      ],
      "type": "VEC3"
    },
    {
      "bufferView": 4,
      "componentType": 5126,
      "count": 5583,
      "max": [
        0.9999832510948181,
        0.9996716380119324,
        0.9999817609786987,
        1.0
      ],
      "min": [
        -0.9999545216560364,
        -0.997687041759491,
        -0.9999229907989502,
        -1.0
      ],
      "type": "VEC4"
    },
    {
      "bufferView": 2,
      "componentType": 5126,
      "count": 5583,
      "max": [
        0.9949477910995483,
        0.9983713030815125
      ],
      "min": [
        0.009228244423866272,
        0.0007718205451965332
      ],
      "type": "VEC2"
    },
    {
      "bufferView": 1,
      "componentType": 5125,
      "count": 29580,
      "type": "SCALAR"
    },
    {
      "bufferView": 5,
      "componentType": 5126,
      "count": 66,
      "max": [
        1.0,
        0.9296188950538635,
        0.8845036029815674,
        0.0,
        0.45831236243247986,
        1.0,
        0.998773992061615,
        0.0,
        0.9992550015449524,
        0.9948959946632385,
        1.0,
        0.0,
        1.032610297203064,
        3.6917190551757813,
        5.429004192352295,
        1.0
      ],
      "min": [
        -0.9989839792251587,
        -0.9296182990074158,
        -0.9015685319900513,
        0.0,
        -0.4681471288204193,
        -0.9963160157203674,
        -0.9232854247093201,
        0.0,
        -0.9988769888877869,
        -0.19804494082927704,
        -0.3263855576515198,
        0.0,
        -1.043064832687378,
        -6.099325180053711,
        -0.5617489814758301,
        1.0
      ],
      "type": "MAT4"
    },
    {
      "bufferView": 0,
      "componentType": 5123,
      "count": 5583,
      "type": "VEC4"
    },
    {
      "bufferView": 4,
      "byteOffset": 89328,
      "componentType": 5126,
      "count": 5583,
      "max": [
        1.0,
        0.4992755949497223,
        0.31402432918548584,
        0.23724372684955597
      ],
      "min": [
        0.2731594741344452,
        0.0,
        0.0,
        0.0
      ],
      "type": "VEC4"
    },
    {
      "bufferView": 6,
      "componentType": 5126,
      "count": 394,
      "max": [
        9.333333015441895
      ],
      "min": [
        0.0
      ],
      "type": "SCALAR"
    },
    {
      "bufferView": 7,
      "componentType": 5126,
      "count": 394,
      "max": [
        2.220446049250313e-16,
        0.22764253616333008,
        0.06087786704301834
      ],
      "min": [
        -2.220446049250313e-16,
        0.22764253616333008,
        0.06087786704301834
      ],
      "type": "VEC3"
    },
    {
      "bufferView": 6,
      "byteOffset": 1576,
      "componentType": 5126,
      "count": 449,
      "max": [
        9.333333015441895
      ],
      "min": [
        0.0
      ],
      "type": "SCALAR"
    },
    {
      "bufferView": 8,
      "componentType": 5126,
      "count": 449,
      "max": [
        -0.017572371289134026,
        0.03931662067770958,
        0.08236292004585266,
        0.9994947910308838
      ],
      "min": [
        -0.2772769033908844,
        -0.07390136271715164,
        -0.008640325628221035,
        0.9594953060150146
      ],
      "type": "VEC4"
    },
    {
      "bufferView": 6,
      "byteOffset": 3372,
      "componentType": 5126,
      "count": 369,
      "max": [
        9.333333015441895
      ],
      "min": [
        0.0
      ],
      "type": "SCALAR"
    },
    {
      "bufferView": 7,
      "byteOffset": 4728,
      "componentType": 5126,
      "count": 369,
      "max": [
        2.220446049250313e-16,
        0.5805872082710266,
        -6.08518320177609e-08
      ],
      "min": [
        -2.220446049250313e-16,
        0.5805872082710266,
        -6.08518320177609e-08
      ],
      "type": "VEC3"
    },
    {
      "bufferView": 6,
      "byteOffset": 4848,
      "componentType": 5126,
      "count": 449,
      "max": [
        9.333333015441895
      ],
      "min": [
        0.0
      ],
      "type": "SCALAR"
    },
    {
      "bufferView": 8,
      "byteOffset": 7184,
      "componentType": 5126,
      "count": 449,
      "max": [
        0.09884773939847946,
        0.006456390954554081,
        -0.00019434084242675453,
        0.9997368454933167
      ],
      "min": [
        0.022576620802283287,
        -0.006353115197271109,
        -0.03696614131331444,
        0.9947648048400879
      ],
      "type": "VEC4"
    },
    {
      "bufferView": 6,
      "byteOffset": 6644,
      "componentType": 5126,
      "count": 368,
      "max": [
        9.333333015441895
      ],
      "min": [
        0.0
      ],
      "type": "SCALAR"
    },
    {
      "bufferView": 7,
      "byteOffset": 9156,
      "componentType": 5126,
      "count": 368,
      "max": [
        -0.00016681678243912756,
        0.11059235036373138,
        2.158117240469437e-09
      ],
      "min": [
        -0.00016681678243912756,
        0.11059235036373138,
        2.1581159082018075e-09
      ],
      "type": "VEC3"
    },
    {
      "bufferView": 6,
      "byteOffset": 8116,
      "componentType": 5126,
      "count": 449,
      "max": [
        9.333333015441895
      ],
      "min": [
        0.0
      ],
      "type": "SCALAR"
    },
    {
      "bufferView": 8,
      "byteOffset": 14368,
      "componentType": 5126,
      "count": 449,
      "max": [
        0.5150231122970581,
        0.00019929527479689568,
        -0.00861743837594986,
        0.99094557762146
      ],
      "min": [
        0.13398738205432892,
        5.62131499464158e-05,
        -0.037349648773670197,
        0.8563621640205383
      ],
      "type": "VEC4"
    },
    {
      "bufferView": 6,
      "byteOffset": 9912,
      "componentType": 5126,
      "count": 395,
      "max": [
        9.333333015441895
      ],
      "min": [
        0.0
      ],
      "type": "SCALAR"
    },
    {
      "bufferView": 7,
      "byteOffset": 13572,
      "componentType": 5126,
      "count": 395,
      "max": [
        5.956648601568304e-05,
        0.12028715759515762,
        -1.3597785120111894e-09
      ],
      "min": [
        5.956648601568304e-05,
        0.12028715759515762,
        -1.359779400189609e-09
      ],
      "type": "VEC3"
    },
    {
      "bufferView": 6,
      "byteOffset": 11492,
      "componentType": 5126,
      "count": 449,
      "max": [
        9.333333015441895
      ],
      "min": [
        0.0
      ],
      "type": "SCALAR"
    },
    {
      "bufferView": 8,
      "byteOffset": 21552,
      "componentType": 5126,
      "count": 449,
      "max": [
        0.7563893795013428,
        0.00036358568468131125,
        -0.018200840801000595,
        0.9739919900894165
      ],
      "min": [
        0.2258501797914505,
        0.00010122887033503503,
        -0.05751081928610802,
        0.6515884399414063
      ],
      "type": "VEC4"
    },
    {
      "bufferView": 6,
      "byteOffset": 13288,
      "componentType": 5126,
      "count": 449,
      "max": [
        9.333333015441895
      ],
      "min": [
        0.0
      ],
      "type": "SCALAR"
    },
    {
      "bufferView": 8,
      "byteOffset": 28736,
      "componentType": 5126,
      "count": 449,
      "max": [
        0.4395247995853424,
        0.019747968763113022,
        0.004864134825766087,
        0.9787967801094055
      ],
      "min": [
        0.20419250428676605,
        0.01544837187975645,
        -0.017271213233470917,
        0.8978472352027893
      ],
      "type": "VEC4"
    },
    {
      "bufferView": 6,
      "byteOffset": 15084,
      "componentType": 5126,
      "count": 359,
      "max": [
        9.333333015441895
      ],
      "min": [
        0.0
      ],
      "type": "SCALAR"
    },
    {
      "bufferView": 7,
      "byteOffset": 18312,
      "componentType": 5126,
      "count": 359,
      "max": [
        -2.2135294784675352e-05,
        0.11739201098680496,
        2.2034400970483148e-09
      ],
      "min": [
        -2.2135294784675352e-05,
        0.11739201098680496,
        2.2034383206914754e-09
      ],
      "type": "VEC3"
    },
    {
      "bufferView": 6,
      "byteOffset": 16520,
      "componentType": 5126,
      "count": 449,
      "max": [
        9.333333015441895
      ],
      "min": [
        0.0
      ],
      "type": "SCALAR"
    },
    {
      "bufferView": 8,
      "byteOffset": 35920,
      "componentType": 5126,
      "count": 449,
      "max": [
        0.447715163230896,
        0.00019617234647739679,
        -0.006463297642767429,
        0.9982661604881287
      ],
      "min": [
        0.05850572511553764,
        7.771996024530381e-06,
        -0.046233292669057846,
        0.89298015832901
      ],
      "type": "VEC4"
    },
    {
      "bufferView": 6,
      "byteOffset": 18316,
      "componentType": 5126,
      "count": 406,
      "max": [
        9.333333015441895
      ],
      "min": [
        0.0
      ],
      "type": "SCALAR"
    },
    {
      "bufferView": 7,
      "byteOffset": 22620,
      "componentType": 5126,
      "count": 406,
      "max": [
        0.0001249080669367686,
        0.12393204122781754,
        -5.122227086928888e-10
      ],
      "min": [
        0.0001249080669367686,
        0.12393204122781754,
        -5.122235968713085e-10
      ],
      "type": "VEC3"
    },
    {
      "bufferView": 6,
      "byteOffset": 19940,
      "componentType": 5126,
      "count": 449,
      "max": [
        9.333333015441895
      ],
      "min": [
        0.0
      ],
      "type": "SCALAR"
    },
    {
      "bufferView": 8,
      "byteOffset": 43104,
      "componentType": 5126,
      "count": 449,
      "max": [
        0.7607377171516418,
        -6.677093915641308e-05,
        -0.02440214529633522,
        0.9717715978622437
      ],
      "min": [
        0.23465819656848907,
        -0.0002885345311369747,
        -0.0780981183052063,
        0.6443436741828918
      ],
      "type": "VEC4"
    },
    {
      "bufferView": 6,
      "byteOffset": 21736,
      "componentType": 5126,
      "count": 449,
      "max": [
        9.333333015441895
      ],
      "min": [
        0.0
      ],
      "type": "SCALAR"
    },
    {
      "bufferView": 8,
      "byteOffset": 50288,
      "componentType": 5126,
      "count": 449,
      "max": [
        0.3454493582248688,
        0.005344143137335777,
        0.012509336695075035,
        0.9945662021636963
      ],
      "min": [
        0.10335185378789902,
        -0.0001573219196870923,
        -0.012970934621989727,
        0.9383325576782227
      ],
      "type": "VEC4"
    },
    {
      "bufferView": 6,
      "byteOffset": 23532,
      "componentType": 5126,
      "count": 364,
      "max": [
        9.333333015441895
      ],
      "min": [
        0.0
      ],
      "type": "SCALAR"
    },
    {
      "bufferView": 7,
      "byteOffset": 27492,
      "componentType": 5126,
      "count": 364,
      "max": [
        -7.791020470904186e-05,
        0.09073587507009506,
        -1.8671544310677746e-09
      ],
      "min": [
        -7.791020470904186e-05,
        0.09073587507009506,
        -1.867156207424614e-09
      ],
      "type": "VEC3"
    },
    {
      "bufferView": 6,
      "byteOffset": 24988,
      "componentType": 5126,
      "count": 449,
      "max": [
        9.333333015441895
      ],
      "min": [
        0.0
      ],
      "type": "SCALAR"
    },
    {
      "bufferView": 8,
      "byteOffset": 57472,
      "componentType": 5126,
      "count": 449,
      "max": [
        0.5670195817947388,
        -0.0003140576009172946,
        -0.0222042016685009,
        0.9800050258636475
      ],
      "min": [
        0.19772961735725403,
        -0.0012917568674311042,
        -0.07096563279628754,
        0.8206406235694885
      ],
      "type": "VEC4"
    },
    {
      "bufferView": 6,
      "byteOffset": 26784,
      "componentType": 5126,
      "count": 422,
      "max": [
        9.333333015441895
      ],
      "min": [
        0.0
      ],
      "type": "SCALAR"
    },
    {
      "bufferView": 7,
      "byteOffset": 31860,
      "componentType": 5126,
      "count": 422,
      "max": [
        -0.00041674496605992317,
        0.09658389538526535,
        3.337530252167653e-10
      ],
      "min": [
        -0.00041674496605992317,
        0.09658389538526535,
        3.337521370383456e-10
      ],
      "type": "VEC3"
    },
    {
      "bufferView": 6,
      "byteOffset": 28472,
      "componentType": 5126,
      "count": 449,
      "max": [
        9.333333015441895
      ],
      "min": [
        0.0
      ],
      "type": "SCALAR"
    },
    {
      "bufferView": 8,
      "byteOffset": 64656,
      "componentType": 5126,
      "count": 449,
      "max": [
        0.7574427127838135,
        0.001917534158565104,
        -0.02888953499495983,
        0.97214275598526
      ],
      "min": [
        0.23260188102722168,
        0.0005071957712061703,
        -0.0979044958949089,
        0.6455165147781372
      ],
      "type": "VEC4"
    },
    {
      "bufferView": 6,
      "byteOffset": 30268,
      "componentType": 5126,
      "count": 449,
      "max": [
        9.333333015441895
      ],
      "min": [
        0.0
      ],
      "type": "SCALAR"
    },
    {
      "bufferView": 8,
      "byteOffset": 71840,
      "componentType": 5126,
      "count": 449,
      "max": [
        0.41415053606033325,
        -0.0046411436051130295,
        -1.5187200006039347e-05,
        0.9840688705444336
      ],
      "min": [
        0.17740283906459808,
        -0.011692856438457966,
        -0.028515569865703583,
        0.9097497463226318
      ],
      "type": "VEC4"
    },
    {
      "bufferView": 6,
      "byteOffset": 32064,
      "componentType": 5126,
      "count": 378,
      "max": [
        9.333333015441895
      ],
      "min": [
        0.0
      ],
      "type": "SCALAR"
    },
    {
      "bufferView": 7,
      "byteOffset": 36924,
      "componentType": 5126,
      "count": 378,
      "max": [
        0.00020170722564216703,
        0.08055637776851654,
        3.2096227897682184e-09
      ],
      "min": [
        0.00020170722564216703,
        0.08055637776851654,
        3.209621013411379e-09
      ],
      "type": "VEC3"
    },
    {
      "bufferView": 6,
      "byteOffset": 33576,
      "componentType": 5126,
      "count": 449,
      "max": [
        9.333333015441895
      ],
      "min": [
        0.0
      ],
      "type": "SCALAR"
    },
    {
      "bufferView": 8,
      "byteOffset": 79024,
      "componentType": 5126,
      "count": 449,
      "max": [
        0.5662118792533875,
        -0.0003496865392662585,
        -0.028353216126561165,
        0.9799016118049622
      ],
      "min": [
        0.1974557787179947,
        -0.0010644856374710798,
        -0.08019629865884781,
        0.8203484416007996
      ],
      "type": "VEC4"
    },
    {
      "bufferView": 6,
      "byteOffset": 35372,
      "componentType": 5126,
      "count": 68,
      "max": [
        9.333333015441895
      ],
      "min": [
        0.0
      ],
      "type": "SCALAR"
    },
    {
      "bufferView": 7,
      "byteOffset": 41460,
      "componentType": 5126,
      "count": 68,
      "max": [
        -0.00031388012575916946,
        0.09284386783838272,
        6.19763040887733e-09
      ],
      "min": [
        -0.00031388012575916946,
        0.09284386783838272,
        6.197629520698911e-09
      ],
      "type": "VEC3"
    },
    {
      "bufferView": 6,
      "byteOffset": 35644,
      "componentType": 5126,
      "count": 449,
      "max": [
        9.333333015441895
      ],
      "min": [
        0.0
      ],
      "type": "SCALAR"
    },
    {
      "bufferView": 8,
      "byteOffset": 86208,
      "componentType": 5126,
      "count": 449,
      "max": [
        0.6757407784461975,
        0.00023421578225679696,
        -0.013655977323651314,
        0.993025004863739
      ],
      "min": [
        0.1171102225780487,
        1.741850792313926e-05,
        -0.0930786281824112,
        0.7312391400337219
      ],
      "type": "VEC4"
    },
    {
      "bufferView": 6,
      "byteOffset": 37440,
      "componentType": 5126,
      "count": 449,
      "max": [
        9.333333015441895
      ],
      "min": [
        0.0
      ],
      "type": "SCALAR"
    },
    {
      "bufferView": 8,
      "byteOffset": 93392,
      "componentType": 5126,
      "count": 449,
      "max": [
        0.4703436493873596,
        -0.007492679171264172,
        -0.00807037390768528,
        0.9708902835845947
      ],
      "min": [
        0.23891767859458923,
        -0.015009727329015732,
        -0.03750664368271828,
        0.8816540837287903
      ],
      "type": "VEC4"
    },
    {
      "bufferView": 6,
      "byteOffset": 39236,
      "componentType": 5126,
      "count": 402,
      "max": [
        9.333333015441895
      ],
      "min": [
        0.0
      ],
      "type": "SCALAR"
    },
    {
      "bufferView": 7,
      "byteOffset": 42276,
      "componentType": 5126,
      "count": 402,
      "max": [
        -4.51628867637055e-09,
        0.9401435852050781,
        -3.3610394467586957e-09
      ],
      "min": [
        -4.51629000863818e-09,
        0.9401435852050781,
        -3.361041223115535e-09
      ],
      "type": "VEC3"
    },
    {
      "bufferView": 6,
      "byteOffset": 40844,
      "componentType": 5126,
      "count": 449,
      "max": [
        9.333333015441895
      ],
      "min": [
        0.0
      ],
      "type": "SCALAR"
    },
    {
      "bufferView": 8,
      "byteOffset": 100576,
      "componentType": 5126,
      "count": 449,
      "max": [
        0.11500222235918045,
        0.3083573579788208,
        0.1009620875120163,
        0.996640682220459
      ],
      "min": [
        -0.08321186900138855,
        0.06380470842123032,
        -0.17683421075344086,
        0.9512630105018616
      ],
      "type": "VEC4"
    },
    {
      "bufferView": 6,
      "byteOffset": 42640,
      "componentType": 5126,
      "count": 228,
      "max": [
        9.333333015441895
      ],
      "min": [
        0.0
      ],
      "type": "SCALAR"
    },
    {
      "bufferView": 7,
      "byteOffset": 47100,
      "componentType": 5126,
      "count": 228,
      "max": [
        4.3221008994009935e-09,
        1.068170428276062,
        3.09149363886263e-08
      ],
      "min": [
        4.322100011222574e-09,
        1.068170428276062,
        3.09149363886263e-08
      ],
      "type": "VEC3"
    },
    {
      "bufferView": 6,
      "byteOffset": 43552,
      "componentType": 5126,
      "count": 449,
      "max": [
        9.333333015441895
      ],
      "min": [
        0.0
      ],
      "type": "SCALAR"
    },
    {
      "bufferView": 8,
      "byteOffset": 107760,
      "componentType": 5126,
      "count": 449,
      "max": [
        0.048506639897823334,
        -0.00031593366293236613,
        0.3702557384967804,
        0.9933339357376099
      ],
      "min": [
        0.014973814599215984,
        -0.0003418579581193626,
        0.11429500579833984,
        0.9276624917984009
      ],
      "type": "VEC4"
    },
    {
      "bufferView": 6,
      "byteOffset": 45348,
      "componentType": 5126,
      "count": 440,
      "max": [
        9.333333015441895
      ],
      "min": [
        0.0
      ],
      "type": "SCALAR"
    },
    {
      "bufferView": 7,
      "byteOffset": 49836,
      "componentType": 5126,
      "count": 440,
      "max": [
        -1.3931078512996464e-11,
        0.48997068405151367,
        -1.5976553413565853e-10
      ],
      "min": [
        -1.3932410780626014e-11,
        0.48997068405151367,
        -1.5976908684933733e-10
      ],
      "type": "VEC3"
    },
    {
      "bufferView": 6,
      "byteOffset": 47108,
      "componentType": 5126,
      "count": 449,
      "max": [
        9.333333015441895
      ],
      "min": [
        0.0
      ],
      "type": "SCALAR"
    },
    {
      "bufferView": 8,
      "byteOffset": 114944,
      "componentType": 5126,
      "count": 449,
      "max": [
        0.48543214797973633,
        -0.08056782931089401,
        0.1754142940044403,
        0.9232929944992065
      ],
      "min": [
        0.37144842743873596,
        -0.2174414098262787,
        -0.024707410484552383,
        0.8546527028083801
      ],
      "type": "VEC4"
    },
    {
      "bufferView": 6,
      "byteOffset": 48904,
      "componentType": 5126,
      "count": 449,
      "max": [
        9.333333015441895
      ],
      "min": [
        0.0
      ],
      "type": "SCALAR"
    },
    {
      "bufferView": 8,
      "byteOffset": 122128,
      "componentType": 5126,
      "count": 449,
      "max": [
        0.6639505624771118,
        0.3548949360847473,
        -0.5554371476173401,
        0.3774009943008423
      ],
      "min": [
        0.6414644122123718,
        0.3340630829334259,
        -0.5974416136741638,
        0.3385627269744873
      ],
      "type": "VEC4"
    },
    {
      "bufferView": 6,
      "byteOffset": 50700,
      "componentType": 5126,
      "count": 262,
      "max": [
        9.333333015441895
      ],
      "min": [
        0.0
      ],
      "type": "SCALAR"
    },
    {
      "bufferView": 7,
      "byteOffset": 55116,
      "componentType": 5126,
      "count": 262,
      "max": [
        -0.0001264013844775036,
        0.10843438655138016,
        -4.363811534346951e-09
      ],
      "min": [
        -0.0001264013844775036,
        0.10843438655138016,
        -4.36381331070379e-09
      ],
      "type": "VEC3"
    },
    {
      "bufferView": 6,
      "byteOffset": 51748,
      "componentType": 5126,
      "count": 449,
      "max": [
        9.333333015441895
      ],
      "min": [
        0.0
      ],
      "type": "SCALAR"
    },
    {
      "bufferView": 8,
      "byteOffset": 129312,
      "componentType": 5126,
      "count": 449,
      "max": [
        0.5811262130737305,
        -9.52353366301395e-05,
        0.02910734713077545,
        0.9917079210281372
      ],
      "min": [
        0.1282530277967453,
        -0.0006543959607370198,
        0.008156782947480679,
        0.8132925033569336
      ],
      "type": "VEC4"
    },
    {
      "bufferView": 6,
      "byteOffset": 53544,
      "componentType": 5126,
      "count": 150,
      "max": [
        9.333333015441895
      ],
      "min": [
        0.0
      ],
      "type": "SCALAR"
    },
    {
      "bufferView": 7,
      "byteOffset": 58260,
      "componentType": 5126,
      "count": 150,
      "max": [
        -0.00015193651779554784,
        0.1175936833024025,
        3.569855966389923e-09
      ],
      "min": [
        -0.00015193651779554784,
        0.1175936833024025,
        3.5698553002561084e-09
      ],
      "type": "VEC3"
    },
    {
      "bufferView": 6,
      "byteOffset": 54144,
      "componentType": 5126,
      "count": 449,
      "max": [
        9.333333015441895
      ],
      "min": [
        0.0
      ],
      "type": "SCALAR"
    },
    {
      "bufferView": 8,
      "byteOffset": 136496,
      "componentType": 5126,
      "count": 449,
      "max": [
        0.6275235414505005,
        0.0008110945927910507,
        0.029831724241375923,
        0.9825563430786133
      ],
      "min": [
        0.18574117124080658,
        0.00022844616614747792,
        0.00912262499332428,
        0.7780254483222961
      ],
      "type": "VEC4"
    },
    {
      "bufferView": 6,
      "byteOffset": 55940,
      "componentType": 5126,
      "count": 449,
      "max": [
        9.333333015441895
      ],
      "min": [
        0.0
      ],
      "type": "SCALAR"
    },
    {
      "bufferView": 8,
      "byteOffset": 143680,
      "componentType": 5126,
      "count": 449,
      "max": [
        0.23683282732963562,
        -0.01603846251964569,
        -0.030654320493340492,
        0.9932578206062317
      ],
      "min": [
        0.10813848674297333,
        -0.02133934386074543,
        -0.03903551027178764,
        0.9708322286605835
      ],
      "type": "VEC4"
    },
    {
      "bufferView": 6,
      "byteOffset": 57736,
      "componentType": 5126,
      "count": 396,
      "max": [
        9.333333015441895
      ],
      "min": [
        0.0
      ],
      "type": "SCALAR"
    },
    {
      "bufferView": 7,
      "byteOffset": 60060,
      "componentType": 5126,
      "count": 396,
      "max": [
        5.847597549291095e-06,
        0.11631285399198532,
        1.1696936752514375e-09
      ],
      "min": [
        5.847597549291095e-06,
        0.11631285399198532,
        1.1696918988945981e-09
      ],
      "type": "VEC3"
    },
    {
      "bufferView": 6,
      "byteOffset": 59320,
      "componentType": 5126,
      "count": 449,
      "max": [
        9.333333015441895
      ],
      "min": [
        0.0
      ],
      "type": "SCALAR"
    },
    {
      "bufferView": 8,
      "byteOffset": 150864,
      "componentType": 5126,
      "count": 449,
      "max": [
        0.6545708179473877,
        3.1187829563350533e-07,
        0.04985000193119049,
        0.9750313758850098
      ],
      "min": [
        0.2214260697364807,
        -2.578232738414954e-07,
        0.016863016411662102,
        0.7543553709983826
      ],
      "type": "VEC4"
    },
    {
      "bufferView": 6,
      "byteOffset": 61116,
      "componentType": 5126,
      "count": 54,
      "max": [
        9.333333015441895
      ],
      "min": [
        0.0
      ],
      "type": "SCALAR"
    },
    {
      "bufferView": 7,
      "byteOffset": 64812,
      "componentType": 5126,
      "count": 54,
      "max": [
        1.854213587648701e-05,
        0.12422157824039459,
        5.7772457928706444e-09
      ],
      "min": [
        1.854213587648701e-05,
        0.12422157824039459,
        5.777244904692225e-09
      ],
      "type": "VEC3"
    },
    {
      "bufferView": 6,
      "byteOffset": 61332,
      "componentType": 5126,
      "count": 449,
      "max": [
        9.333333015441895
      ],
      "min": [
        0.0
      ],
      "type": "SCALAR"
    },
    {
      "bufferView": 8,
      "byteOffset": 158048,
      "componentType": 5126,
      "count": 449,
      "max": [
        0.6264165043830872,
        3.278949520790775e-07,
        0.04770564287900925,
        0.9825435280799866
      ],
      "min": [
        0.18549570441246033,
        -2.5732424546731636e-07,
        0.014126633293926716,
        0.778027355670929
      ],
      "type": "VEC4"
    },
    {
      "bufferView": 6,
      "byteOffset": 63128,
      "componentType": 5126,
      "count": 449,
      "max": [
        9.333333015441895
      ],
      "min": [
        0.0
      ],
      "type": "SCALAR"
    },
    {
      "bufferView": 8,
      "byteOffset": 165232,
      "componentType": 5126,
      "count": 449,
      "max": [
        0.3356230556964874,
        -0.0023379044141620398,
        0.0016770416405051947,
        0.9776559472084045
      ],
      "min": [
        0.21003040671348572,
        -0.005497913807630539,
        -0.008403461426496506,
        0.9419788122177124
      ],
      "type": "VEC4"
    },
    {
      "bufferView": 6,
      "byteOffset": 64924,
      "componentType": 5126,
      "count": 324,
      "max": [
        9.333333015441895
      ],
      "min": [
        0.0
      ],
      "type": "SCALAR"
    },
    {
      "bufferView": 7,
      "byteOffset": 65460,
      "componentType": 5126,
      "count": 324,
      "max": [
        -0.00010265837045153603,
        0.09069006145000458,
        -5.0600590384419775e-09
      ],
      "min": [
        -0.00010265837045153603,
        0.09069006145000458,
        -5.060060814798817e-09
      ],
      "type": "VEC3"
    },
    {
      "bufferView": 6,
      "byteOffset": 66220,
      "componentType": 5126,
      "count": 449,
      "max": [
        9.333333015441895
      ],
      "min": [
        0.0
      ],
      "type": "SCALAR"
    },
    {
      "bufferView": 8,
      "byteOffset": 172416,
      "componentType": 5126,
      "count": 449,
      "max": [
        0.6538282036781311,
        0.0018448089249432087,
        0.05725932493805885,
        0.975066602230072
      ],
      "min": [
        0.22118161618709564,
        0.000499956775456667,
        0.01798943430185318,
        0.7544711232185364
      ],
      "type": "VEC4"
    },
    {
      "bufferView": 6,
      "byteOffset": 68016,
      "componentType": 5126,
      "count": 90,
      "max": [
        9.333333015441895
      ],
      "min": [
        0.0
      ],
      "type": "SCALAR"
    },
    {
      "bufferView": 7,
      "byteOffset": 69348,
      "componentType": 5126,
      "count": 90,
      "max": [
        0.0005523810395970941,
        0.1004159152507782,
        -4.130225050857916e-09
      ],
      "min": [
        0.0005523810395970941,
        0.1004159152507782,
        -4.130226383125546e-09
      ],
      "type": "VEC3"
    },
    {
      "bufferView": 6,
      "byteOffset": 68376,
      "componentType": 5126,
      "count": 449,
      "max": [
        9.333333015441895
      ],
      "min": [
        0.0
      ],
      "type": "SCALAR"
    },
    {
      "bufferView": 8,
      "byteOffset": 179600,
      "componentType": 5126,
      "count": 449,
      "max": [
        0.6260318756103516,
        -0.00026963718119077384,
        0.05344894528388977,
        0.9825582504272461
      ],
      "min": [
        0.1854875534772873,
        -0.0013811088865622878,
        0.013174675405025482,
        0.777962327003479
      ],
      "type": "VEC4"
    },
    {
      "bufferView": 6,
      "byteOffset": 70172,
      "componentType": 5126,
      "count": 449,
      "max": [
        9.333333015441895
      ],
      "min": [
        0.0
      ],
      "type": "SCALAR"
    },
    {
      "bufferView": 8,
      "byteOffset": 186784,
      "componentType": 5126,
      "count": 449,
      "max": [
        0.4049139618873596,
        -0.0036759839858859777,
        0.029253344982862473,
        0.9590305089950562
      ],
      "min": [
        0.28259792923927307,
        -0.009665465913712978,
        0.019227396696805954,
        0.9138355851173401
      ],
      "type": "VEC4"
    },
    {
      "bufferView": 6,
      "byteOffset": 71968,
      "componentType": 5126,
      "count": 374,
      "max": [
        9.333333015441895
      ],
      "min": [
        0.0
      ],
      "type": "SCALAR"
    },
    {
      "bufferView": 7,
      "byteOffset": 70428,
      "componentType": 5126,
      "count": 374,
      "max": [
        -0.000645490363240242,
        0.07835818827152252,
        -5.1155222280385715e-09
      ],
      "min": [
        -0.000645490363240242,
        0.07835818827152252,
        -5.115524004395411e-09
      ],
      "type": "VEC3"
    },
    {
      "bufferView": 6,
      "byteOffset": 73464,
      "componentType": 5126,
      "count": 449,
      "max": [
        9.333333015441895
      ],
      "min": [
        0.0
      ],
      "type": "SCALAR"
    },
    {
      "bufferView": 8,
      "byteOffset": 193968,
      "componentType": 5126,
      "count": 449,
      "max": [
        0.6523292660713196,
        0.0011259173043072224,
        0.07790286093950272,
        0.9748628735542297
      ],
      "min": [
        0.2206772118806839,
        0.0004669170593842864,
        0.030719688162207603,
        0.7539206743240356
      ],
      "type": "VEC4"
    },
    {
      "bufferView": 6,
      "byteOffset": 75260,
      "componentType": 5126,
      "count": 411,
      "max": [
        9.333333015441895
      ],
      "min": [
        0.0
      ],
      "type": "SCALAR"
    },
    {
      "bufferView": 7,
      "byteOffset": 74916,
      "componentType": 5126,
      "count": 411,
      "max": [
        0.0003512321272864938,
        0.08914167433977127,
        2.119601383299141e-09
      ],
      "min": [
        0.0003512321272864938,
        0.08914167433977127,
        2.1195998289869067e-09
      ],
      "type": "VEC3"
    },
    {
      "bufferView": 6,
      "byteOffset": 76904,
      "componentType": 5126,
      "count": 449,
      "max": [
        9.333333015441895
      ],
      "min": [
        0.0
      ],
      "type": "SCALAR"
    },
    {
      "bufferView": 8,
      "byteOffset": 201152,
      "componentType": 5126,
      "count": 449,
      "max": [
        0.6243245601654053,
        0.0008793644956313074,
        0.06546854227781296,
        0.9826517105102539
      ],
      "min": [
        0.18486762046813965,
        0.00015555720892734826,
        0.014819207601249218,
        0.7784162759780884
      ],
      "type": "VEC4"
    },
    {
      "bufferView": 6,
      "byteOffset": 78700,
      "componentType": 5126,
      "count": 449,
      "max": [
        9.333333015441895
      ],
      "min": [
        0.0
      ],
      "type": "SCALAR"
    },
    {
      "bufferView": 8,
      "byteOffset": 208336,
      "componentType": 5126,
      "count": 449,
      "max": [
        0.4625668227672577,
        0.016072914004325867,
        0.04070993885397911,
        0.9386064410209656
      ],
      "min": [
        0.3433701992034912,
        0.013779595494270325,
        0.029252460226416588,
        0.8855420351028442
      ],
      "type": "VEC4"
    },
    {
      "bufferView": 6,
      "byteOffset": 80496,
      "componentType": 5126,
      "count": 379,
      "max": [
        9.333333015441895
      ],
      "min": [
        0.0
      ],
      "type": "SCALAR"
    },
    {
      "bufferView": 7,
      "byteOffset": 79848,
      "componentType": 5126,
      "count": 379,
      "max": [
        1.8586865380143536e-10,
        0.9415633678436279,
        -1.8234464604915956e-08
      ],
      "min": [
        1.8586776562301566e-10,
        0.9415633678436279,
        -1.8234464604915956e-08
      ],
      "type": "VEC3"
    },
    {
      "bufferView": 6,
      "byteOffset": 82012,
      "componentType": 5126,
      "count": 449,
      "max": [
        9.333333015441895
      ],
      "min": [
        0.0
      ],
      "type": "SCALAR"
    },
    {
      "bufferView": 8,
      "byteOffset": 215520,
      "componentType": 5126,
      "count": 449,
      "max": [
        0.08488580584526062,
        0.06099941208958626,
        0.02262509986758232,
        0.9992008805274963
      ],
      "min": [
        -0.030385084450244904,
        -0.21895983815193176,
        -0.08243268728256226,
        0.9721534252166748
      ],
      "type": "VEC4"
    },
    {
      "bufferView": 6,
      "byteOffset": 83808,
      "componentType": 5126,
      "count": 416,
      "max": [
        9.333333015441895
      ],
      "min": [
        0.0
      ],
      "type": "SCALAR"
    },
    {
      "bufferView": 7,
      "byteOffset": 84396,
      "componentType": 5126,
      "count": 416,
      "max": [
        -1.1751044581842507e-09,
        1.0682373046875,
        4.523819985280397e-09
      ],
      "min": [
        -1.1751057904518802e-09,
        1.0682373046875,
        4.523819097101978e-09
      ],
      "type": "VEC3"
    },
    {
      "bufferView": 6,
      "byteOffset": 85472,
      "componentType": 5126,
      "count": 449,
      "max": [
        9.333333015441895
      ],
      "min": [
        0.0
      ],
      "type": "SCALAR"
    },
    {
      "bufferView": 8,
      "byteOffset": 222704,
      "componentType": 5126,
      "count": 449,
      "max": [
        0.0352754145860672,
        0.0002496186934877187,
        -0.16981011629104614,
        0.9852250814437866
      ],
      "min": [
        0.022270098328590393,
        0.00024370911705773324,
        -0.2689768671989441,
        0.9625003933906555
      ],
      "type": "VEC4"
    },
    {
      "bufferView": 6,
      "byteOffset": 87268,
      "componentType": 5126,
      "count": 435,
      "max": [
        9.333333015441895
      ],
      "min": [
        0.0
      ],
      "type": "SCALAR"
    },
    {
      "bufferView": 7,
      "byteOffset": 89388,
      "componentType": 5126,
      "count": 435,
      "max": [
        5.856648499502626e-11,
        0.48997068405151367,
        -1.545581440609567e-10
      ],
      "min": [
        5.856470863818686e-11,
        0.48997068405151367,
        -1.545608085962158e-10
      ],
      "type": "VEC3"
    },
    {
      "bufferView": 6,
      "byteOffset": 89008,
      "componentType": 5126,
      "count": 449,
      "max": [
        9.333333015441895
      ],
      "min": [
        0.0
      ],
      "type": "SCALAR"
    },
    {
      "bufferView": 8,
      "byteOffset": 229888,
      "componentType": 5126,
      "count": 449,
      "max": [
        0.4654694199562073,
        0.21699054539203644,
        0.04342115670442581,
        0.9242895245552063
      ],
      "min": [
        0.3652437627315521,
        0.04999363794922829,
        -0.09574742615222931,
        0.8683385848999023
      ],
      "type": "VEC4"
    },
    {
      "bufferView": 6,
      "byteOffset": 90804,
      "componentType": 5126,
      "count": 449,
      "max": [
        9.333333015441895
      ],
      "min": [
        0.0
      ],
      "type": "SCALAR"
    },
    {
      "bufferView": 8,
      "byteOffset": 237072,
      "componentType": 5126,
      "count": 449,
      "max": [
        0.6938123106956482,
        -0.3416728377342224,
        0.5049744844436646,
        0.45157140493392944
      ],
      "min": [
        0.6616264581680298,
        -0.3730904757976532,
        0.448799192905426,
        0.40677931904792786
      ],
      "type": "VEC4"
    },
    {
      "bufferView": 6,
      "byteOffset": 92600,
      "componentType": 5126,
      "count": 441,
      "max": [
        9.333333015441895
      ],
      "min": [
        0.0
      ],
      "type": "SCALAR"
    },
    {
      "bufferView": 7,
      "byteOffset": 94608,
      "componentType": 5126,
      "count": 441,
      "max": [
        2.220446049250313e-16,
        0.5160782337188721,
        -1.3621348493586538e-09
      ],
      "min": [
        -2.220446049250313e-16,
        0.5160782337188721,
        -1.3621361816262834e-09
      ],
      "type": "VEC3"
    },
    {
      "bufferView": 6,
      "byteOffset": 94364,
      "componentType": 5126,
      "count": 449,
      "max": [
        9.333333015441895
      ],
      "min": [
        0.0
      ],
      "type": "SCALAR"
    },
    {
      "bufferView": 8,
      "byteOffset": 244256,
      "componentType": 5126,
      "count": 449,
      "max": [
        0.10559859126806259,
        0.02689124271273613,
        0.022651823237538338,
        0.99867182970047
      ],
      "min": [
        0.04816658794879913,
        0.002184606622904539,
        -0.000943454448133707,
        0.99424147605896
      ],
      "type": "VEC4"
    },
    {
      "bufferView": 6,
      "byteOffset": 96160,
      "componentType": 5126,
      "count": 447,
      "max": [
        9.333333015441895
      ],
      "min": [
        0.0
      ],
      "type": "SCALAR"
    },
    {
      "bufferView": 7,
      "byteOffset": 99900,
      "componentType": 5126,
      "count": 447,
      "max": [
        2.220446049250313e-16,
        0.4515683352947235,
        -3.1338376338396756e-10
      ],
      "min": [
        -1.1102230246251565e-16,
        0.4515683352947235,
        -3.1338465156238726e-10
      ],
      "type": "VEC3"
    },
    {
      "bufferView": 6,
      "byteOffset": 97948,
      "componentType": 5126,
      "count": 449,
      "max": [
        9.333333015441895
      ],
      "min": [
        0.0
      ],
      "type": "SCALAR"
    },
    {
      "bufferView": 8,
      "byteOffset": 251440,
      "componentType": 5126,
      "count": 449,
      "max": [
        0.10559742897748947,
        0.030845433473587036,
        0.02260051853954792,
        0.9986690282821655
      ],
      "min": [
        0.04817434400320053,
        0.00477255554869771,
        -0.0009346986189484596,
        0.9942272901535034
      ],
      "type": "VEC4"
    },
    {
      "bufferView": 6,
      "byteOffset": 99744,
      "componentType": 5126,
      "count": 408,
      "max": [
        9.333333015441895
      ],
      "min": [
        0.0
      ],
      "type": "SCALAR"
    },
    {
      "bufferView": 7,
      "byteOffset": 105264,
      "componentType": 5126,
      "count": 408,
      "max": [
        8.326672684688674e-17,
        0.3847835063934326,
        -0.04190119355916977
      ],
      "min": [
        -8.326672684688674e-17,
        0.3847835063934326,
        -0.04190119355916977
      ],
      "type": "VEC3"
    },
    {
      "bufferView": 6,
      "byteOffset": 101376,
      "componentType": 5126,
      "count": 449,
      "max": [
        9.333333015441895
      ],
      "min": [
        0.0
      ],
      "type": "SCALAR"
    },
    {
      "bufferView": 8,
      "byteOffset": 258624,
      "componentType": 5126,
      "count": 449,
      "max": [
        0.09348142147064209,
        0.03228943422436714,
        0.06465224176645279,
        0.9991536736488342
      ],
      "min": [
        0.012096511200070381,
        0.013691105879843235,
        0.017376065254211426,
        0.9933804869651794
      ],
      "type": "VEC4"
    },
    {
      "bufferView": 6,
      "byteOffset": 103172,
      "componentType": 5126,
      "count": 397,
      "max": [
        9.333333015441895
      ],
      "min": [
        0.0
      ],
      "type": "SCALAR"
    },
    {
      "bufferView": 7,
      "byteOffset": 110160,
      "componentType": 5126,
      "count": 397,
      "max": [
        -1.125667781209927e-09,
        0.6496110558509827,
        1.1235863794922807e-08
      ],
      "min": [
        -1.1256684473437417e-09,
        0.6496110558509827,
        1.1235863794922807e-08
      ],
      "type": "VEC3"
    },
    {
      "bufferView": 6,
      "byteOffset": 104760,
      "componentType": 5126,
      "count": 449,
      "max": [
        9.333333015441895
      ],
      "min": [
        0.0
      ],
      "type": "SCALAR"
    },
    {
      "bufferView": 8,
      "byteOffset": 265808,
      "componentType": 5126,
      "count": 449,
      "max": [
        0.7612626552581787,
        -0.042248427867889404,
        0.014160106889903545,
        0.9390509128570557
      ],
      "min": [
        0.33996498584747314,
        -0.08616239577531815,
        -0.006385007873177528,
        0.6440958380699158
      ],
      "type": "VEC4"
    },
    {
      "bufferView": 6,
      "byteOffset": 106556,
      "componentType": 5126,
      "count": 449,
      "max": [
        9.333333015441895
      ],
      "min": [
        0.0
      ],
      "type": "SCALAR"
    },
    {
      "bufferView": 7,
      "byteOffset": 114924,
      "componentType": 5126,
      "count": 449,
      "max": [
        1.7126219331586867e-09,
        1.6106005907058716,
        -3.7318648171691393e-10
      ],
      "min": [
        1.712621267024872e-09,
        1.6106005907058716,
        -3.731871478507287e-10
      ],
      "type": "VEC3"
    },
    {
      "bufferView": 6,
      "byteOffset": 108352,
      "componentType": 5126,
      "count": 449,
      "max": [
        9.333333015441895
      ],
      "min": [
        0.0
      ],
      "type": "SCALAR"
    },
    {
      "bufferView": 8,
      "byteOffset": 272992,
      "componentType": 5126,
      "count": 449,
      "max": [
        0.5892403721809387,
        -0.027790384367108345,
        0.035581596195697784,
        0.952081561088562
      ],
      "min": [
        0.2884732782840729,
        -0.11509725451469421,
        -0.07060831785202026,
        0.8064630031585693
      ],
      "type": "VEC4"
    },
    {
      "bufferView": 6,
      "byteOffset": 110148,
      "componentType": 5126,
      "count": 442,
      "max": [
        9.333333015441895
      ],
      "min": [
        0.0
      ],
      "type": "SCALAR"
    },
    {
      "bufferView": 7,
      "byteOffset": 120312,
      "componentType": 5126,
      "count": 442,
      "max": [
        -1.8881252117353142e-10,
        1.7596089839935303,
        -3.2787106363230123e-10
      ],
      "min": [
        -1.8881340935195112e-10,
        1.7596089839935303,
        -3.278723958999308e-10
      ],
      "type": "VEC3"
    },
    {
      "bufferView": 6,
      "byteOffset": 111916,
      "componentType": 5126,
      "count": 449,
      "max": [
        9.333333015441895
      ],
      "min": [
        0.0
      ],
      "type": "SCALAR"
    },
    {
      "bufferView": 8,
      "byteOffset": 280176,
      "componentType": 5126,
      "count": 449,
      "max": [
        -0.38689908385276794,
        -0.015948722139000893,
        0.02243521437048912,
        0.9176686406135559
      ],
      "min": [
        -0.5386092066764832,
        -0.11645295470952988,
        -0.024882618337869644,
        0.8367006182670593
      ],
      "type": "VEC4"
    },
    {
      "bufferView": 6,
      "byteOffset": 113712,
      "componentType": 5126,
      "count": 449,
      "max": [
        9.333333015441895
      ],
      "min": [
        0.0
      ],
      "type": "SCALAR"
    },
    {
      "bufferView": 8,
      "byteOffset": 287360,
      "componentType": 5126,
      "count": 449,
      "max": [
        0.1758624166250229,
        0.3776819407939911,
        0.9576871395111084,
        -0.06164853274822235
      ],
      "min": [
        0.10550598055124283,
        0.21933645009994507,
        0.9006261229515076,
        -0.15025456249713898
      ],
      "type": "VEC4"
    },
    {
      "bufferView": 6,
      "byteOffset": 115508,
      "componentType": 5126,
      "count": 436,
      "max": [
        9.333333015441895
      ],
      "min": [
        0.0
      ],
      "type": "SCALAR"
    },
    {
      "bufferView": 7,
      "byteOffset": 125616,
      "componentType": 5126,
      "count": 436,
      "max": [
        -2.4663723841023e-10,
        0.6351465582847595,
        5.399098945702008e-09
      ],
      "min": [
        -2.4663748821041054e-10,
        0.6351465582847595,
        5.399098501612798e-09
      ],
      "type": "VEC3"
    },
    {
      "bufferView": 6,
      "byteOffset": 117252,
      "componentType": 5126,
      "count": 449,
      "max": [
        9.333333015441895
      ],
      "min": [
        0.0
      ],
      "type": "SCALAR"
    },
    {
      "bufferView": 8,
      "byteOffset": 294544,
      "componentType": 5126,
      "count": 449,
      "max": [
        0.21411997079849243,
        0.03838949650526047,
        -0.012552516534924507,
        0.9764131307601929
      ],
      "min": [
        0.2121245414018631,
        0.038242634385824203,
        -0.01257244497537613,
        0.9759719967842102
      ],
      "type": "VEC4"
    },
    {
      "bufferView": 6,
      "byteOffset": 119048,
      "componentType": 5126,
      "count": 25,
      "max": [
        9.333333015441895
      ],
      "min": [
        0.0
      ],
      "type": "SCALAR"
    },
    {
      "bufferView": 7,
      "byteOffset": 130848,
      "componentType": 5126,
      "count": 25,
      "max": [
        -2.2247224062965643e-09,
        1.6097558736801147,
        5.590894858187312e-09
      ],
      "min": [
        -2.2247224062965643e-09,
        1.6097558736801147,
        5.590893970008892e-09
      ],
      "type": "VEC3"
    },
    {
      "bufferView": 6,
      "byteOffset": 119148,
      "componentType": 5126,
      "count": 449,
      "max": [
        9.333333015441895
      ],
      "min": [
        0.0
      ],
      "type": "SCALAR"
    },
    {
      "bufferView": 8,
      "byteOffset": 301728,
      "componentType": 5126,
      "count": 449,
      "max": [
        0.6576919555664063,
        0.02791750431060791,
        0.008773035369813442,
        0.807905912399292
      ],
      "min": [
        0.5847949981689453,
        -0.011950455605983734,
        -0.07187089323997498,
        0.7527949213981628
      ],
      "type": "VEC4"
    },
    {
      "bufferView": 6,
      "byteOffset": 120944,
      "componentType": 5126,
      "count": 395,
      "max": [
        9.333333015441895
      ],
      "min": [
        0.0
      ],
      "type": "SCALAR"
    },
    {
      "bufferView": 7,
      "byteOffset": 131148,
      "componentType": 5126,
      "count": 395,
      "max": [
        1.0855226939554541e-08,
        1.7596133947372437,
        4.53405979428112e-10
      ],
      "min": [
        1.0855226939554541e-08,
        1.7596133947372437,
        4.534050912496923e-10
      ],
      "type": "VEC3"
    },
    {
      "bufferView": 6,
      "byteOffset": 122524,
      "componentType": 5126,
      "count": 449,
      "max": [
        9.333333015441895
      ],
      "min": [
        0.0
      ],
      "type": "SCALAR"
    },
    {
      "bufferView": 8,
      "byteOffset": 308912,
      "componentType": 5126,
      "count": 449,
      "max": [
        -0.31834712624549866,
        0.08790270984172821,
        -0.0007057135226204991,
        0.9466224908828735
      ],
      "min": [
        -0.4309549331665039,
        0.04895491898059845,
        -0.021752897650003433,
        0.8994393348693848
      ],
      "type": "VEC4"
    },
    {
      "bufferView": 6,
      "byteOffset": 124320,
      "componentType": 5126,
      "count": 449,
      "max": [
        9.333333015441895
      ],
      "min": [
        0.0
      ],
      "type": "SCALAR"
    },
    {
      "bufferView": 8,
      "byteOffset": 316096,
      "componentType": 5126,
      "count": 449,
      "max": [
        -0.03805306553840637,
        0.30264797806739807,
        0.9795417785644531,
        0.014839221723377705
      ],
      "min": [
        -0.043312832713127136,
        0.19687926769256592,
        0.9503004550933838,
        -0.0648568868637085
      ],
      "type": "VEC4"
    },
    {
      "bufferView": 6,
      "byteOffset": 126116,
      "componentType": 5126,
      "count": 449,
      "max": [
        9.333333015441895
      ],
      "min": [
        0.0
      ],
      "type": "SCALAR"
    },
    {
      "bufferView": 7,
      "byteOffset": 135888,
      "componentType": 5126,
      "count": 449,
      "max": [
        0.338203489780426,
        3.781878709793091,
        0.18530124425888062
      ],
      "min": [
        -0.05118583142757416,
        3.6132938861846924,
        -0.2811698019504547
      ],
      "type": "VEC3"
    },
    {
      "bufferView": 6,
      "byteOffset": 127912,
      "componentType": 5126,
      "count": 449,
      "max": [
        9.333333015441895
      ],
      "min": [
        0.0
      ],
      "type": "SCALAR"
    },
    {
      "bufferView": 8,
      "byteOffset": 323280,
      "componentType": 5126,
      "count": 449,
      "max": [
        0.06466515362262726,
        -0.021083729341626167,
        0.008330591022968292,
        0.9991803765296936
      ],
      "min": [
        0.013011290691792965,
        -0.0760873481631279,
        -0.026484869420528412,
        0.9960322976112366
      ],
      "type": "VEC4"
    }
  ],
  "animations": [
    {
      "channels": [
        {
          "sampler": 0,
          "target": {
            "node": 13,
            "path": "translation"
          }
        },
        {
          "sampler": 1,
          "target": {
            "node": 13,
            "path": "rotation"
          }
        },
        {
          "sampler": 2,
          "target": {
            "node": 12,
            "path": "translation"
          }
        },
        {
          "sampler": 3,
          "target": {
            "node": 12,
            "path": "rotation"
          }
        },
        {
          "sampler": 4,
          "target": {
            "node": 25,
            "path": "translation"
          }
        },
        {
          "sampler": 5,
          "target": {
            "node": 25,
            "path": "rotation"
          }
        },
        {
          "sampler": 6,
          "target": {
            "node": 24,
            "path": "translation"
          }
        },
        {
          "sampler": 7,
          "target": {
            "node": 24,
            "path": "rotation"
          }
        },
        {
          "sampler": 8,
          "target": {
            "node": 23,
            "path": "rotation"
          }
        },
        {
          "sampler": 9,
          "target": {
            "node": 29,
            "path": "translation"
          }
        },
        {
          "sampler": 10,
          "target": {
            "node": 29,
            "path": "rotation"
          }
        },
        {
          "sampler": 11,
          "target": {
            "node": 28,
            "path": "translation"
          }
        },
        {
          "sampler": 12,
          "target": {
            "node": 28,
            "path": "rotation"
          }
        },
        {
          "sampler": 13,
          "target": {
            "node": 27,
            "path": "rotation"
          }
        },
        {
          "sampler": 14,
          "target": {
            "node": 33,
            "path": "translation"
          }
        },
        {
          "sampler": 15,
          "target": {
            "node": 33,
            "path": "rotation"
          }
        },
        {
          "sampler": 16,
          "target": {
            "node": 32,
            "path": "translation"
          }
        },
        {
          "sampler": 17,
          "target": {
            "node": 32,
            "path": "rotation"
          }
        },
        {
          "sampler": 18,
          "target": {
            "node": 31,
            "path": "rotation"
          }
        },
        {
          "sampler": 19,
          "target": {
            "node": 37,
            "path": "translation"
          }
        },
        {
          "sampler": 20,
          "target": {
            "node": 37,
            "path": "rotation"
          }
        },
        {
          "sampler": 21,
          "target": {
            "node": 36,
            "path": "translation"
          }
        },
        {
          "sampler": 22,
          "target": {
            "node": 36,
            "path": "rotation"
          }
        },
        {
          "sampler": 23,
          "target": {
            "node": 35,
            "path": "rotation"
          }
        },
        {
          "sampler": 24,
          "target": {
            "node": 18,
            "path": "translation"
          }
        },
        {
          "sampler": 25,
          "target": {
            "node": 18,
            "path": "rotation"
          }
        },
        {
          "sampler": 26,
          "target": {
            "node": 17,
            "path": "translation"
          }
        },
        {
          "sampler": 27,
          "target": {
            "node": 17,
            "path": "rotation"
          }
        },
        {
          "sampler": 28,
          "target": {
            "node": 16,
            "path": "translation"
          }
        },
        {
          "sampler": 29,
          "target": {
            "node": 16,
            "path": "rotation"
          }
        },
        {
          "sampler": 30,
          "target": {
            "node": 15,
            "path": "rotation"
          }
        },
        {
          "sampler": 31,
          "target": {
            "node": 49,
            "path": "translation"
          }
        },
        {
          "sampler": 32,
          "target": {
            "node": 49,
            "path": "rotation"
          }
        },
        {
          "sampler": 33,
          "target": {
            "node": 48,
            "path": "translation"
          }
        },
        {
          "sampler": 34,
          "target": {
            "node": 48,
            "path": "rotation"
          }
        },
        {
          "sampler": 35,
          "target": {
            "node": 47,
            "path": "rotation"
          }
        },
        {
          "sampler": 36,
          "target": {
            "node": 53,
            "path": "translation"
          }
        },
        {
          "sampler": 37,
          "target": {
            "node": 53,
            "path": "rotation"
          }
        },
        {
          "sampler": 38,
          "target": {
            "node": 52,
            "path": "translation"
          }
        },
        {
          "sampler": 39,
          "target": {
            "node": 52,
            "path": "rotation"
          }
        },
        {
          "sampler": 40,
          "target": {
            "node": 51,
            "path": "rotation"
          }
        },
        {
          "sampler": 41,
          "target": {
            "node": 57,
            "path": "translation"
          }
        },
        {
          "sampler": 42,
          "target": {
            "node": 57,
            "path": "rotation"
          }
        },
        {
          "sampler": 43,
          "target": {
            "node": 56,
            "path": "translation"
          }
        },
        {
          "sampler": 44,
          "target": {
            "node": 56,
            "path": "rotation"
          }
        },
        {
          "sampler": 45,
          "target": {
            "node": 55,
            "path": "rotation"
          }
        },
        {
          "sampler": 46,
          "target": {
            "node": 61,
            "path": "translation"
          }
        },
        {
          "sampler": 47,
          "target": {
            "node": 61,
            "path": "rotation"
          }
        },
        {
          "sampler": 48,
          "target": {
            "node": 60,
            "path": "translation"
          }
        },
        {
          "sampler": 49,
          "target": {
            "node": 60,
            "path": "rotation"
          }
        },
        {
          "sampler": 50,
          "target": {
            "node": 59,
            "path": "rotation"
          }
        },
        {
          "sampler": 51,
          "target": {
            "node": 42,
            "path": "translation"
          }
        },
        {
          "sampler": 52,
          "target": {
            "node": 42,
            "path": "rotation"
          }
        },
        {
          "sampler": 53,
          "target": {
            "node": 41,
            "path": "translation"
          }
        },
        {
          "sampler": 54,
          "target": {
            "node": 41,
            "path": "rotation"
          }
        },
        {
          "sampler": 55,
          "target": {
            "node": 40,
            "path": "translation"
          }
        },
        {
          "sampler": 56,
          "target": {
            "node": 40,
            "path": "rotation"
          }
        },
        {
          "sampler": 57,
          "target": {
            "node": 39,
            "path": "rotation"
          }
        },
        {
          "sampler": 58,
          "target": {
            "node": 11,
            "path": "translation"
          }
        },
        {
          "sampler": 59,
          "target": {
            "node": 11,
            "path": "rotation"
          }
        },
        {
          "sampler": 60,
          "target": {
            "node": 10,
            "path": "translation"
          }
        },
        {
          "sampler": 61,
          "target": {
            "node": 10,
            "path": "rotation"
          }
        },
        {
          "sampler": 62,
          "target": {
            "node": 9,
            "path": "translation"
          }
        },
        {
          "sampler": 63,
          "target": {
            "node": 9,
            "path": "rotation"
          }
        },
        {
          "sampler": 64,
          "target": {
            "node": 66,
            "path": "translation"
          }
        },
        {
          "sampler": 65,
          "target": {
            "node": 66,
            "path": "rotation"
          }
        },
        {
          "sampler": 66,
          "target": {
            "node": 65,
            "path": "translation"
          }
        },
        {
          "sampler": 67,
          "target": {
            "node": 65,
            "path": "rotation"
          }
        },
        {
          "sampler": 68,
          "target": {
            "node": 64,
            "path": "translation"
          }
        },
        {
          "sampler": 69,
          "target": {
            "node": 64,
            "path": "rotation"
          }
        },
        {
          "sampler": 70,
          "target": {
            "node": 63,
            "path": "rotation"
          }
        },
        {
          "sampler": 71,
          "target": {
            "node": 71,
            "path": "translation"
          }
        },
        {
          "sampler": 72,
          "target": {
            "node": 71,
            "path": "rotation"
          }
        },
        {
          "sampler": 73,
          "target": {
            "node": 70,
            "path": "translation"
          }
        },
        {
          "sampler": 74,
          "target": {
            "node": 70,
            "path": "rotation"
          }
        },
        {
          "sampler": 75,
          "target": {
            "node": 69,
            "path": "translation"
          }
        },
        {
          "sampler": 76,
          "target": {
            "node": 69,
            "path": "rotation"
          }
        },
        {
          "sampler": 77,
          "target": {
            "node": 68,
            "path": "rotation"
          }
        },
        {
          "sampler": 78,
          "target": {
            "node": 8,
            "path": "translation"
          }
        },
        {
          "sampler": 79,
          "target": {
            "node": 8,
            "path": "rotation"
          }
        }
      ],
      "name": "Take 001",
      "samplers": [
        {
          "input": 8,
          "interpolation": "LINEAR",
          "output": 9
        },
        {
          "input": 10,
          "interpolation": "LINEAR",
          "output": 11
        },
        {
          "input": 12,
          "interpolation": "LINEAR",
          "output": 13
        },
        {
          "input": 14,
          "interpolation": "LINEAR",
          "output": 15
        },
        {
          "input": 16,
          "interpolation": "LINEAR",
          "output": 17
        },
        {
          "input": 18,
          "interpolation": "LINEAR",
          "output": 19
        },
        {
          "input": 20,
          "interpolation": "LINEAR",
          "output": 21
        },
        {
          "input": 22,
          "interpolation": "LINEAR",
          "output": 23
        },
        {
          "input": 24,
          "interpolation": "LINEAR",
          "output": 25
        },
        {
          "input": 26,
          "interpolation": "LINEAR",
          "output": 27
        },
        {
          "input": 28,
          "interpolation": "LINEAR",
          "output": 29
        },
        {
          "input": 30,
          "interpolation": "LINEAR",
          "output": 31
        },
        {
          "input": 32,
          "interpolation": "LINEAR",
          "output": 33
        },
        {
          "input": 34,
          "interpolation": "LINEAR",
          "output": 35
        },
        {
          "input": 36,
          "interpolation": "LINEAR",
          "output": 37
        },
        {
          "input": 38,
          "interpolation": "LINEAR",
          "output": 39
        },
        {
          "input": 40,
          "interpolation": "LINEAR",
          "output": 41
        },
        {
          "input": 42,
          "interpolation": "LINEAR",
          "output": 43
        },
        {
          "input": 44,
          "interpolation": "LINEAR",
          "output": 45
        },
        {
          "input": 46,
          "interpolation": "LINEAR",
          "output": 47
        },
        {
          "input": 48,
          "interpolation": "LINEAR",
          "output": 49
        },
        {
          "input": 50,
          "interpolation": "LINEAR",
          "output": 51
        },
        {
          "input": 52,
          "interpolation": "LINEAR",
          "output": 53
        },
        {
          "input": 54,
          "interpolation": "LINEAR",
          "output": 55
        },
        {
          "input": 56,
          "interpolation": "LINEAR",
          "output": 57
        },
        {
          "input": 58,
          "interpolation": "LINEAR",
          "output": 59
        },
        {
          "input": 60,
          "interpolation": "LINEAR",
          "output": 61
        },
        {
          "input": 62,
          "interpolation": "LINEAR",
          "output": 63
        },
        {
          "input": 64,
          "interpolation": "LINEAR",
          "output": 65
        },
        {
          "input": 66,
          "interpolation": "LINEAR",
          "output": 67
        },
        {
          "input": 68,
          "interpolation": "LINEAR",
          "output": 69
        },
        {
          "input": 70,
          "interpolation": "LINEAR",
          "output": 71
        },
        {
          "input": 72,
          "interpolation": "LINEAR",
          "output": 73
        },
        {
          "input": 74,
          "interpolation": "LINEAR",
          "output": 75
        },
        {
          "input": 76,
          "interpolation": "LINEAR",
          "output": 77
        },
        {
          "input": 78,
          "interpolation": "LINEAR",
          "output": 79
        },
        {
          "input": 80,
          "interpolation": "LINEAR",
          "output": 81
        },
        {
          "input": 82,
          "interpolation": "LINEAR",
          "output": 83
        },
        {
          "input": 84,
          "interpolation": "LINEAR",
          "output": 85
        },
        {
          "input": 86,
          "interpolation": "LINEAR",
          "output": 87
        },
        {
          "input": 88,
          "interpolation": "LINEAR",
          "output": 89
        },
        {
          "input": 90,
          "interpolation": "LINEAR",
          "output": 91
        },
        {
          "input": 92,
          "interpolation": "LINEAR",
          "output": 93
        },
        {
          "input": 94,
          "interpolation": "LINEAR",
          "output": 95
        },
        {
          "input": 96,
          "interpolation": "LINEAR",
          "output": 97
        },
        {
          "input": 98,
          "interpolation": "LINEAR",
          "output": 99
        },
        {
          "input": 100,
          "interpolation": "LINEAR",
          "output": 101
        },
        {
          "input": 102,
          "interpolation": "LINEAR",
          "output": 103
        },
        {
          "input": 104,
          "interpolation": "LINEAR",
          "output": 105
        },
        {
          "input": 106,
          "interpolation": "LINEAR",
          "output": 107
        },
        {
          "input": 108,
          "interpolation": "LINEAR",
          "output": 109
        },
        {
          "input": 110,
          "interpolation": "LINEAR",
          "output": 111
        },
        {
          "input": 112,
          "interpolation": "LINEAR",
          "output": 113
        },
        {
          "input": 114,
          "interpolation": "LINEAR",
          "output": 115
        },
        {
          "input": 116,
          "interpolation": "LINEAR",
          "output": 117
        },
        {
          "input": 118,
          "interpolation": "LINEAR",
          "output": 119
        },
        {
          "input": 120,
          "interpolation": "LINEAR",
          "output": 121
        },
        {
          "input": 122,
          "interpolation": "LINEAR",
          "output": 123
        },
        {
          "input": 124,
          "interpolation": "LINEAR",
          "output": 125
        },
        {
          "input": 126,
          "interpolation": "LINEAR",
          "output": 127
        },
        {
          "input": 128,
          "interpolation": "LINEAR",
          "output": 129
        },
        {
          "input": 130,
          "interpolation": "LINEAR",
          "output": 131
        },
        {
          "input": 132,
          "interpolation": "LINEAR",
          "output": 133
        },
        {
          "input": 134,
          "interpolation": "LINEAR",
          "output": 135
        },
        {
          "input": 136,
          "interpolation": "LINEAR",
          "output": 137
        },
        {
          "input": 138,
          "interpolation": "LINEAR",
          "output": 139
        },
        {
          "input": 140,
          "interpolation": "LINEAR",
          "output": 141
        },
        {
          "input": 142,
          "interpolation": "LINEAR",
          "output": 143
        },
        {
          "input": 144,
          "interpolation": "LINEAR",
          "output": 145
        },
        {
          "input": 146,
          "interpolation": "LINEAR",
          "output": 147
        },
        {
          "input": 148,
          "interpolation": "LINEAR",
          "output": 149
        },
        {
          "input": 150,
          "interpolation": "LINEAR",
          "output": 151
        },
        {
          "input": 152,
          "interpolation": "LINEAR",
          "output": 153
        },
        {
          "input": 154,
          "interpolation": "LINEAR",
          "output": 155
        },
        {
          "input": 156,
          "interpolation": "LINEAR",
          "output": 157
        },
        {
          "input": 158,
          "interpolation": "LINEAR",
          "output": 159
        },
        {
          "input": 160,
          "interpolation": "LINEAR",
          "output": 161
        },
        {
          "input": 162,
          "interpolation": "LINEAR",
          "output": 163
        },
        {
          "input": 164,
          "interpolation": "LINEAR",
          "output": 165
        },
        {
          "input": 166,
          "interpolation": "LINEAR",
          "output": 167
        }
      ]
    }
  ],
  "asset": {
    "extras": {
      "author": "Tannstongli (https://sketchfab.com/Croquett)",
      "license": "CC-BY-NC-ND-4.0 (http://creativecommons.org/licenses/by-nc-nd/4.0/)",
      "source": "https://sketchfab.com/3d-models/alien-animation-test-9ee37f2e49f344db824872902960cc92",
      "title": "Alien Animation Test"
    },
    "generator": "Sketchfab-12.68.0",
    "version": "2.0"
  },
  "bufferViews": [
    {
      "buffer": 0,
      "byteLength": 44664,
      "byteStride": 8,
      "name": "shortBufferViews",
      "target": 34962
    },
    {
      "buffer": 0,
      "byteLength": 118320,
      "byteOffset": 44664,
      "name": "floatBufferViews",
      "target": 34963
    },
    {
      "buffer": 0,
      "byteLength": 44664,
      "byteOffset": 162984,
      "byteStride": 8,
      "name": "floatBufferViews",
      "target": 34962
    },
    {
      "buffer": 0,
      "byteLength": 133992,
      "byteOffset": 207648,
      "byteStride": 12,
      "name": "floatBufferViews",
      "target": 34962
    },
    {
      "buffer": 0,
      "byteLength": 178656,
      "byteOffset": 341640,
      "byteStride": 16,
      "name": "floatBufferViews",
      "target": 34962
    },
    {
      "buffer": 0,
      "byteLength": 4224,
      "byteOffset": 520296,
      "name": "floatBufferViews"
    },
    {
      "buffer": 0,
      "byteLength": 129708,
      "byteOffset": 524520,
      "name": "floatBufferViews"
    },
    {
      "buffer": 0,
      "byteLength": 141276,
      "byteOffset": 654228,
      "byteStride": 12,
      "name": "floatBufferViews"
    },
    {
      "buffer": 0,
      "byteLength": 330464,
      "byteOffset": 795504,
      "byteStride": 16,
      "name": "floatBufferViews"
    }
  ],
  "buffers": [
    {
      "byteLength": 1125968,
      "uri": "scene.bin"
    }
  ],
  "images": [
    {
      "uri": "textures/Body_Mat_baseColor.png"
    },
    {
      "uri": "textures/Body_Mat_metallicRoughness.png"
    },
    {
      "uri": "textures/Body_Mat_normal.png"
    }
  ],
  "materials": [
    {
      "doubleSided": true,
      "name": "Body_Mat",
      "normalTexture": {
        "index": 2
      },
      "pbrMetallicRoughness": {
        "baseColorTexture": {
          "index": 0
        },
        "metallicRoughnessTexture": {
          "index": 1
        }
      }
    }
  ],
  "meshes": [
    {
      "name": "Male_Body_Mat_0",
      "primitives": [
        {
          "attributes": {
            "JOINTS_0": 6,
            "NORMAL": 1,
            "POSITION": 0,
            "TANGENT": 2,
            "TEXCOORD_0": 3,
            "WEIGHTS_0": 7
          },
          "indices": 4,
          "material": 0,
          "mode": 4
        }
      ]
    }
  ],
  "nodes": [
    {
      "children": [
        1
      ],
      "matrix": [
        1.0,
        0.0,
        0.0,
        0.0,
        0.0,
        2.220446049250313e-16,
        -1.0,
        0.0,
        0.0,
        1.0,
        2.220446049250313e-16,
        0.0,
        0.0,
        0.0,
        0.0,
        1.0
      ],
      "name": "Sketchfab_model"
    },
    {
      "children": [
        2
      ],
      "matrix": [
        1.0,
        0.0,
        0.0,
        0.0,
        0.0,
        0.0,
        1.0,
        0.0,
        0.0,
        -1.0,
        0.0,
        0.0,
        0.0,
        0.0,
        0.0,
        1.0
      ],
      "name": "d1987a92cb4048fab487e3d63c958f05.fbx"
    },
    {
      "children": [
        3
      ],
      "name": "Object_2"
    },
    {
      "children": [
        4
      ],
      "name": "RootNode"
    },
    {
      "children": [
        5,
        7,
        6,
        73
      ],
      "name": "Object_4"
    },
    {
      "children": [
        8
      ],
      "name": "_rootJoint"
    },
    {
      "matrix": [
        1.0,
        0.0,
        3.469446951953614e-18,
        0.0,
        0.0,
        1.0000000000000002,
        0.0,
        0.0,
        -3.469446951953614e-18,
        0.0,
        1.0,
        0.0,
        0.0,
        -1.0408340855860843e-17,
        -1.1102230246251565e-16,
        1.0
      ],
      "name": "Object_6"
    },
    {
      "mesh": 0,
      "name": "Object_7",
      "skin": 0
    },
    {
      "children": [
        9,
        63,
        68
      ],
      "name": "mixamorig:Hips_01",
      "rotation": [
        0.046714745461940765,
        -0.05983084440231323,
        -0.008500896394252777,
        0.9970785975456238
      ],
      "translation": [
        0.006271500140428543,
        3.6795389652252197,
        0.011185609735548496
      ]
    },
    {
      "children": [
        10
      ],
      "name": "mixamorig:Spine_02",
      "rotation": [
        0.026301708072423935,
        0.02274075336754322,
        0.043109994381666183,
        0.9984651207923889
      ],
      "translation": [
        1.3877787807814457e-17,
        0.3847835063934326,
        -0.04190119355916977
      ]
    },
    {
      "children": [
        11
      ],
      "name": "mixamorig:Spine1_03",
      "rotation": [
        0.05596766993403435,
        0.00962777342647314,
        0.010841740295290947,
        0.9983273148536682
      ],
      "translation": [
        5.551115123125783e-17,
        0.4515683352947235,
        -3.1338442951778234e-10
      ]
    },
    {
      "children": [
        12,
        15,
        39
      ],
      "name": "mixamorig:Spine2_04",
      "rotation": [
        0.05601535737514496,
        0.009147764183580875,
        0.011274450458586216,
        0.9983243346214294
      ],
      "translation": [
        0.0,
        0.5160782337188721,
        -1.3621350714032587e-09
      ]
    },
    {
      "children": [
        13
      ],
      "name": "mixamorig:Neck_05",
      "rotation": [
        0.07301463186740875,
        -0.004608160816133022,
        -0.012748447246849537,
        0.9972387552261353
      ],
      "translation": [
        -2.220446049250313e-16,
        0.5805872082710266,
        -6.08518320177609e-08
      ]
    },
    {
      "children": [
        14
      ],
      "name": "mixamorig:Head_06",
      "rotation": [
        -0.029868243262171745,
        -0.023206064477562904,
        0.0022052910644561052,
        0.9992820024490356
      ],
      "translation": [
        0.0,
        0.22764253616333008,
        0.06087786704301834
      ]
    },
    {
      "name": "mixamorig:HeadTop_End_07",
      "rotation": [
        -5.551115123125783e-17,
        6.938893903907228e-18,
        -1.3877787807814457e-17,
        1.0
      ],
      "translation": [
        0.0,
        1.036262035369873,
        0.2771250009536743
      ]
    },
    {
      "children": [
        16
      ],
      "name": "mixamorig:LeftShoulder_08",
      "rotation": [
        0.6497145891189575,
        0.34769317507743835,
        -0.567057192325592,
        0.3680035173892975
      ],
      "translation": [
        0.22366619110107422,
        0.49146750569343567,
        -0.010213904082775116
      ]
    },
    {
      "children": [
        17
      ],
      "name": "mixamorig:LeftArm_09",
      "rotation": [
        0.47736647725105286,
        -0.1786564439535141,
        0.07125335931777954,
        0.8573949337005615
      ],
      "translation": [
        -1.3931966691416164e-11,
        0.48997068405151367,
        -1.5976731049249793e-10
      ]
    },
    {
      "children": [
        18
      ],
      "name": "mixamorig:LeftForeArm_010",
      "rotation": [
        0.03485739603638649,
        -0.00032813622965477407,
        0.2660711705684662,
        0.9633228778839111
      ],
      "translation": [
        4.322100455311784e-09,
        1.068170428276062,
        3.09149363886263e-08
      ]
    },
    {
      "children": [
        19,
        23,
        27,
        31,
        35
      ],
      "name": "mixamorig:LeftHand_011",
      "rotation": [
        -0.028484534472227097,
        0.18594983220100403,
        -0.07000517100095749,
        0.9796481728553772
      ],
      "translation": [
        -4.51628956454897e-09,
        0.9401435852050781,
        -3.3610401128925105e-09
      ]
    },
    {
      "children": [
        20
      ],
      "name": "mixamorig:LeftHandThumb1_012",
      "rotation": [
        0.15297363698482513,
        0.022624555975198746,
        0.37448716163635254,
        0.9142464399337769
      ],
      "translation": [
        -0.09806319326162338,
        0.17157241702079773,
        0.054859042167663574
      ]
    },
    {
      "children": [
        21
      ],
      "name": "mixamorig:LeftHandThumb2_013",
      "rotation": [
        -0.0013754884712398052,
        -0.02989954687654972,
        -0.30868029594421387,
        0.9506949186325073
      ],
      "translation": [
        0.009427950717508793,
        0.16380316019058228,
        5.19114307095947e-10
      ]
    },
    {
      "children": [
        22
      ],
      "name": "mixamorig:LeftHandThumb3_014",
      "rotation": [
        -0.14123722910881042,
        -0.03301591798663139,
        -0.14922736585140228,
        0.9781070351600647
      ],
      "translation": [
        -0.01800348423421383,
        0.15571445226669312,
        -5.6140101456492175e-09
      ]
    },
    {
      "name": "mixamorig:LeftHandThumb4_015",
      "rotation": [
        5.31894572830538e-09,
        5.551115123125783e-17,
        2.7755575615628914e-17,
        1.0
      ],
      "translation": [
        0.00857552420347929,
        0.14184392988681793,
        3.6169662820384474e-09
      ]
    },
    {
      "children": [
        24
      ],
      "name": "mixamorig:LeftHandIndex1_016",
      "rotation": [
        0.2041926383972168,
        0.015448442660272121,
        0.004864092916250229,
        0.9787967205047607
      ],
      "translation": [
        -0.14978012442588806,
        0.5188183784484863,
        -0.002482915995642543
      ]
    },
    {
      "children": [
        25
      ],
      "name": "mixamorig:LeftHandIndex2_017",
      "rotation": [
        0.2258502095937729,
        0.00010122888488695025,
        -0.018200842663645744,
        0.973992109298706
      ],
      "translation": [
        5.956648601568304e-05,
        0.12028715759515762,
        -1.3597788450780968e-09
      ]
    },
    {
      "children": [
        26
      ],
      "name": "mixamorig:LeftHandIndex3_018",
      "rotation": [
        0.13398747146129608,
        5.641789539367892e-05,
        -0.008617598563432693,
        0.99094557762146
      ],
      "translation": [
        -0.00016681678243912756,
        0.11059235036373138,
        2.1581163522910174e-09
      ]
    },
    {
      "name": "mixamorig:LeftHandIndex4_019",
      "rotation": [
        1.9367492498645333e-08,
        -2.7755575615628914e-17,
        2.7755575615628914e-17,
        1.0
      ],
      "translation": [
        0.00010725042375270277,
        0.09494561702013016,
        5.654590129466897e-10
      ]
    },
    {
      "children": [
        28
      ],
      "name": "mixamorig:LeftHandMiddle1_020",
      "rotation": [
        0.103351891040802,
        -0.00015726198034826666,
        0.012509332038462162,
        0.9945662021636963
      ],
      "translation": [
        -0.04841560497879982,
        0.5412301421165466,
        -0.016167867928743362
      ]
    },
    {
      "children": [
        29
      ],
      "name": "mixamorig:LeftHandMiddle2_021",
      "rotation": [
        0.23465819656848907,
        -6.677093915641308e-05,
        -0.024402201175689697,
        0.9717715978622437
      ],
      "translation": [
        0.0001249080669367686,
        0.12393204122781754,
        -5.122231527820986e-10
      ]
    },
    {
      "children": [
        30
      ],
      "name": "mixamorig:LeftHandMiddle3_022",
      "rotation": [
        0.05850577726960182,
        7.771996024530381e-06,
        -0.006463322788476944,
        0.9982661604881287
      ],
      "translation": [
        -2.2135294784675352e-05,
        0.11739201098680496,
        2.203439208869895e-09
      ]
    },
    {
      "name": "mixamorig:LeftHandMiddle4_023",
      "rotation": [
        1.6831030791308876e-08,
        2.7755575615628914e-17,
        2.862293735361732e-17,
        1.0
      ],
      "translation": [
        -0.00010277042747475207,
        0.10453077405691147,
        1.3161971512687387e-11
      ]
    },
    {
      "children": [
        32
      ],
      "name": "mixamorig:LeftHandRing1_024",
      "rotation": [
        0.17740294337272644,
        -0.01169285736978054,
        -1.519110992376227e-05,
        0.9840689301490784
      ],
      "translation": [
        0.05469163879752159,
        0.5454627871513367,
        -0.011290343478322029
      ]
    },
    {
      "children": [
        33
      ],
      "name": "mixamorig:LeftHandRing2_025",
      "rotation": [
        0.23260195553302765,
        0.0005073432112112641,
        -0.02888953872025013,
        0.9721426963806152
      ],
      "translation": [
        -0.00041674496605992317,
        0.09658389538526535,
        3.3375258112755546e-10
      ]
    },
    {
      "children": [
        34
      ],
      "name": "mixamorig:LeftHandRing3_026",
      "rotation": [
        0.19772963225841522,
        -0.0003140576009172946,
        -0.02220432087779045,
        0.9800050258636475
      ],
      "translation": [
        -7.791020470904186e-05,
        0.09073587507009506,
        -1.8671553192461943e-09
      ]
    },
    {
      "name": "mixamorig:LeftHandRing4_027",
      "rotation": [
        -5.66716762406827e-09,
        -2.7755575615628914e-17,
        -1.5729549951627092e-25,
        1.0
      ],
      "translation": [
        0.0004946542321704328,
        0.08032266795635223,
        -1.4124967862017002e-09
      ]
    },
    {
      "children": [
        36
      ],
      "name": "mixamorig:LeftHandPinky1_028",
      "rotation": [
        0.23891767859458923,
        -0.015009727329015732,
        -0.008070424199104309,
        0.9708902835845947
      ],
      "translation": [
        0.1435040831565857,
        0.458604633808136,
        -0.000599678314756602
      ]
    },
    {
      "children": [
        37
      ],
      "name": "mixamorig:LeftHandPinky2_029",
      "rotation": [
        0.11711032688617706,
        1.7418509742128663e-05,
        -0.013655979186296463,
        0.9930251240730286
      ],
      "translation": [
        -0.00031388012575916946,
        0.09284386783838272,
        6.1976299647881206e-09
      ]
    },
    {
      "children": [
        38
      ],
      "name": "mixamorig:LeftHandPinky3_030",
      "rotation": [
        0.19745595753192902,
        -0.0003497316502034664,
        -0.028353216126561165,
        0.9799016118049622
      ],
      "translation": [
        0.00020170722564216703,
        0.08055637776851654,
        3.2096221236344036e-09
      ]
    },
    {
      "name": "mixamorig:LeftHandPinky4_031",
      "rotation": [
        5.522619250797334e-09,
        -2.7755575615628914e-17,
        -1.3877787807814457e-17,
        1.0
      ],
      "translation": [
        0.0001121699606301263,
        0.07314600795507431,
        -1.9086794367240145e-09
      ]
    },
    {
      "children": [
        40
      ],
      "name": "mixamorig:RightShoulder_032",
      "rotation": [
        0.672576904296875,
        -0.3627440631389618,
        0.48216038942337036,
        0.42846056818962097
      ],
      "translation": [
        -0.22366619110107422,
        0.4913579225540161,
        -0.009207609109580517
      ]
    },
    {
      "children": [
        41
      ],
      "name": "mixamorig:RightArm_033",
      "rotation": [
        0.4542301595211029,
        0.10233473777770996,
        -0.027987798675894737,
        0.8845447897911072
      ],
      "translation": [
        5.856581886121148e-11,
        0.48997068405151367,
        -1.545599204177961e-10
      ]
    },
    {
      "children": [
        42
      ],
      "name": "mixamorig:RightForeArm_034",
      "rotation": [
        0.025506779551506042,
        0.00024826053413562477,
        -0.19448962807655334,
        0.9805728793144226
      ],
      "translation": [
        -1.1751051243180655e-09,
        1.0682373046875,
        4.5238195411911875e-09
      ]
    },
    {
      "children": [
        43,
        47,
        51,
        55,
        59
      ],
      "name": "mixamorig:RightHand_035",
      "rotation": [
        0.031695857644081116,
        -0.1729823350906372,
        -0.02971176989376545,
        0.9839664101600647
      ],
      "translation": [
        1.8586843175683043e-10,
        0.9415633678436279,
        -1.8234464604915956e-08
      ]
    },
    {
      "children": [
        44
      ],
      "name": "mixamorig:RightHandThumb1_036",
      "rotation": [
        0.15741345286369324,
        0.008099845610558987,
        -0.27917370200157166,
        0.9472156167030334
      ],
      "translation": [
        0.10457153618335724,
        0.17432262003421783,
        0.0602433905005455
      ]
    },
    {
      "children": [
        45
      ],
      "name": "mixamorig:RightHandThumb2_037",
      "rotation": [
        -0.007098087575286627,
        0.03488712012767792,
        0.3036706745624542,
        0.9521117806434631
      ],
      "translation": [
        -0.003046158468350768,
        0.16958940029144287,
        4.868265790491932e-10
      ]
    },
    {
      "children": [
        46
      ],
      "name": "mixamorig:RightHandThumb3_038",
      "rotation": [
        -0.13522742688655853,
        0.01682174764573574,
        0.08616328984498978,
        0.9869176745414734
      ],
      "translation": [
        0.013691823929548264,
        0.15494318306446075,
        -1.098892798978568e-08
      ]
    },
    {
      "name": "mixamorig:RightHandThumb4_039",
      "rotation": [
        6.114540873625174e-09,
        -8.326672684688674e-17,
        5.091378293701749e-25,
        1.0
      ],
      "translation": [
        -0.010645674541592598,
        0.1277366280555725,
        1.6183204776254456e-09
      ]
    },
    {
      "children": [
        48
      ],
      "name": "mixamorig:RightHandIndex1_040",
      "rotation": [
        0.10813848674297333,
        -0.016188394278287888,
        -0.038508057594299316,
        0.9932578206062317
      ],
      "translation": [
        0.15368857979774475,
        0.5274868011474609,
        -0.002392769092693925
      ]
    },
    {
      "children": [
        49
      ],
      "name": "mixamorig:RightHandIndex2_041",
      "rotation": [
        0.1857413798570633,
        0.00022854871349409223,
        0.009122640825808048,
        0.9825562834739685
      ],
      "translation": [
        -0.00015193651779554784,
        0.1175936833024025,
        3.5698555223007133e-09
      ]
    },
    {
      "children": [
        50
      ],
      "name": "mixamorig:RightHandIndex3_042",
      "rotation": [
        0.12825308740139008,
        -9.529921953799203e-05,
        0.008156831376254559,
        0.9917079210281372
      ],
      "translation": [
        -0.0001264013844775036,
        0.10843438655138016,
        -4.3638124225253705e-09
      ]
    },
    {
      "name": "mixamorig:RightHandIndex4_043",
      "rotation": [
        -9.628564612285118e-10,
        -2.7755575615628914e-17,
        2.7755575615628914e-17,
        1.0
      ],
      "translation": [
        0.00027833718922920525,
        0.08966176956892014,
        1.9950314733563346e-09
      ]
    },
    {
      "children": [
        52
      ],
      "name": "mixamorig:RightHandMiddle1_044",
      "rotation": [
        0.2100304216146469,
        -0.0023379044141620398,
        -0.008403461426496506,
        0.9776559472084045
      ],
      "translation": [
        0.04958345741033554,
        0.545105516910553,
        -0.017409352585673332
      ]
    },
    {
      "children": [
        53
      ],
      "name": "mixamorig:RightHandMiddle2_045",
      "rotation": [
        0.18549570441246033,
        -3.060528186438205e-08,
        0.014126645401120186,
        0.9825435280799866
      ],
      "translation": [
        1.854213587648701e-05,
        0.12422157824039459,
        5.7772453487814346e-09
      ]
    },
    {
      "children": [
        54
      ],
      "name": "mixamorig:RightHandMiddle3_046",
      "rotation": [
        0.221426323056221,
        -5.373637534944464e-08,
        0.016863243654370308,
        0.975031316280365
      ],
      "translation": [
        5.847597549291095e-06,
        0.11631285399198532,
        1.1696927870730178e-09
      ]
    },
    {
      "name": "mixamorig:RightHandMiddle4_047",
      "rotation": [
        2.529919029825578e-08,
        2.7755573961267688e-17,
        -5.551115123125783e-17,
        1.0
      ],
      "translation": [
        -2.4395463697146624e-05,
        0.10582061856985092,
        6.278871644838091e-09
      ]
    },
    {
      "children": [
        56
      ],
      "name": "mixamorig:RightHandRing1_048",
      "rotation": [
        0.28262636065483093,
        -0.0036985292099416256,
        0.019305825233459473,
        0.9590286612510681
      ],
      "translation": [
        -0.054347213357686996,
        0.5381302237510681,
        -0.007607740815728903
      ]
    },
    {
      "children": [
        57
      ],
      "name": "mixamorig:RightHandRing2_049",
      "rotation": [
        0.18548761308193207,
        -0.0002696688170544803,
        0.013174677267670631,
        0.9825582504272461
      ],
      "translation": [
        0.0005523810395970941,
        0.1004159152507782,
        -4.130225939036336e-09
      ]
    },
    {
      "children": [
        58
      ],
      "name": "mixamorig:RightHandRing3_050",
      "rotation": [
        0.2211817502975464,
        0.0005000068340450525,
        0.0179895032197237,
        0.9750665426254272
      ],
      "translation": [
        -0.00010265837045153603,
        0.09069006145000458,
        -5.060059926620397e-09
      ]
    },
    {
      "name": "mixamorig:RightHandRing4_051",
      "rotation": [
        -1.5941989950363222e-09,
        -1.1102230246251565e-16,
        -2.7755575615628914e-17,
        1.0
      ],
      "translation": [
        -0.0004497228073887527,
        0.08096786588430405,
        1.5346603987609342e-09
      ]
    },
    {
      "children": [
        60
      ],
      "name": "mixamorig:RightHandPinky1_052",
      "rotation": [
        0.34338849782943726,
        0.015983732417225838,
        0.029289698228240013,
        0.9386006593704224
      ],
      "translation": [
        -0.1489248126745224,
        0.4663473665714264,
        -0.0004000773187726736
      ]
    },
    {
      "children": [
        61
      ],
      "name": "mixamorig:RightHandPinky2_053",
      "rotation": [
        0.18486762046813965,
        0.0001556411589263007,
        0.014819207601249218,
        0.9826517105102539
      ],
      "translation": [
        0.0003512321272864938,
        0.08914167433977127,
        2.1196002730761165e-09
      ]
    },
    {
      "children": [
        62
      ],
      "name": "mixamorig:RightHandPinky3_054",
      "rotation": [
        0.22067737579345703,
        0.00046696746721863747,
        0.030719775706529617,
        0.9748628735542297
      ],
      "translation": [
        -0.000645490363240242,
        0.07835818827152252,
        -5.115523116216991e-09
      ]
    },
    {
      "name": "mixamorig:RightHandPinky4_055",
      "rotation": [
        -4.477965109828119e-09,
        -1.3877787807814457e-17,
        -8.326672684688674e-17,
        1.0
      ],
      "translation": [
        0.0002942612045444548,
        0.06700777262449265,
        2.24429808071136e-10
      ]
    },
    {
      "children": [
        64
      ],
      "name": "mixamorig:LeftUpLeg_056",
      "rotation": [
        0.12578390538692474,
        0.31293147802352905,
        0.9317746758460999,
        -0.13434381783008575
      ],
      "translation": [
        0.325137197971344,
        -0.21378254890441895,
        -0.0010776668787002563
      ]
    },
    {
      "children": [
        65
      ],
      "name": "mixamorig:LeftLeg_057",
      "rotation": [
        -0.5342479348182678,
        -0.09532002359628677,
        0.016814548522233963,
        0.83976811170578
      ],
      "translation": [
        -1.888128542404388e-10,
        1.7596089839935303,
        -3.27871729766116e-10
      ]
    },
    {
      "children": [
        66
      ],
      "name": "mixamorig:LeftFoot_058",
      "rotation": [
        0.4323992133140564,
        -0.08045416325330734,
        -0.01854276843369007,
        0.8978943228721619
      ],
      "translation": [
        1.7126217111140818e-09,
        1.6106005907058716,
        -3.7318684253939693e-10
      ]
    },
    {
      "children": [
        67
      ],
      "name": "mixamorig:LeftToeBase_059",
      "rotation": [
        0.5256602764129639,
        -0.06785008311271667,
        0.004527678247541189,
        0.8479723930358887
      ],
      "translation": [
        -1.1256682252991368e-09,
        0.6496110558509827,
        1.1235863794922807e-08
      ]
    },
    {
      "name": "mixamorig:LeftToe_End_060",
      "rotation": [
        -4.627919991673224e-10,
        1.734723475976807e-17,
        -5.551115123125783e-17,
        1.0
      ],
      "translation": [
        7.160692039320793e-10,
        0.24263055622577667,
        -3.2312408304591145e-10
      ]
    },
    {
      "children": [
        69
      ],
      "name": "mixamorig:RightUpLeg_00",
      "rotation": [
        -0.041335321962833405,
        0.25688883662223816,
        0.9649086594581604,
        -0.035366240888834
      ],
      "translation": [
        -0.325137197971344,
        -0.21378254890441895,
        -0.0018858462572097778
      ]
    },
    {
      "children": [
        70
      ],
      "name": "mixamorig:RightLeg_061",
      "rotation": [
        -0.391475647687912,
        0.05989126116037369,
        -0.009757322259247303,
        0.9181855320930481
      ],
      "translation": [
        1.0855226939554541e-08,
        1.7596133947372437,
        4.534057573835071e-10
      ]
    },
    {
      "children": [
        71
      ],
      "name": "mixamorig:RightFoot_062",
      "rotation": [
        0.6410741806030273,
        0.00047302438179031014,
        -0.04791020229458809,
        0.765981912612915
      ],
      "translation": [
        -2.2247224062965643e-09,
        1.6097558736801147,
        5.590894414098102e-09
      ]
    },
    {
      "children": [
        72
      ],
      "name": "mixamorig:RightToeBase_063",
      "rotation": [
        0.21256248652935028,
        0.038274507969617844,
        -0.01256821770220995,
        0.9763168096542358
      ],
      "translation": [
        -2.466374049436837e-10,
        0.6351465582847595,
        5.399098501612798e-09
      ]
    },
    {
      "name": "mixamorig:RightToe_End_064",
      "rotation": [
        -6.289318510432906e-10,
        -3.469446951953614e-18,
        -8.326672684688674e-17,
        1.0
      ],
      "translation": [
        -1.8000434476306282e-10,
        0.24110929667949677,
        -3.007135651600379e-10
      ]
    },
    {
      "name": "Male"
    }
  ],
  "samplers": [
    {
      "magFilter": 9729,
      "minFilter": 9987,
      "wrapS": 10497,
      "wrapT": 10497
    }
  ],
  "scene": 0,
  "scenes": [
    {
      "name": "Sketchfab_Scene",
      "nodes": [
        0
      ]
    }
  ],
  "skins": [
    {
      "inverseBindMatrices": 5,
      "joints": [
        5,
        8,
        9,
        10,
        11,
        12,
        13,
        14,
        15,
        16,
        17,
        18,
        19,
        20,
        21,
        22,
        23,
        24,
        25,
        26,
        27,
        28,
        29,
        30,
        31,
        32,
        33,
        34,
        35,
        36,
        37,
        38,
        39,
        40,
        41,
        42,
        43,
        44,
        45,
        46,
        47,
        48,
        49,
        50,
        51,
        52,
        53,
        54,
        55,
        56,
        57,
        58,
        59,
        60,
        61,
        62,
        63,
        64,
        65,
        66,
        67,
        68,
        69,
        70,
        71,
        72
      ],
      "skeleton": 5
    }
  ],
  "textures": [
    {
      "sampler": 0,
      "source": 0
    },
    {
      "sampler": 0,
      "source": 1
    },
    {
      "sampler": 0,
      "source": 2
    }
  ]
}
